<svg width="200" height="120" viewBox="0 0 200 120" xmlns="http://www.w3.org/2000/svg">
  <defs>
    <linearGradient id="besiktasGradient" x1="0%" y1="0%" x2="100%" y2="100%">
      <stop offset="0%" style="stop-color:#000000;stop-opacity:0.1" />
      <stop offset="50%" style="stop-color:#FFFFFF;stop-opacity:0.2" />
      <stop offset="100%" style="stop-color:#000000;stop-opacity:0.1" />
    </linearGradient>
  </defs>
  
  <!-- Background -->
  <rect width="200" height="120" fill="url(#besiktasGradient)" />
  
  <!-- Bosphorus water -->
  <path d="M0 80 Q50 75 100 80 T200 85 L200 120 L0 120 Z" fill="#4A90E2" opacity="0.3" />
  
  <!-- Historic buildings -->
  <rect x="30" y="50" width="25" height="30" fill="#8B4513" opacity="0.7" />
  <polygon points="30,50 42.5,35 55,50" fill="#CD853F" opacity="0.8" />
  
  <rect x="70" y="45" width="30" height="35" fill="#A0522D" opacity="0.7" />
  <polygon points="70,45 85,30 100,45" fill="#D2691E" opacity="0.8" />
  
  <!-- Modern buildings -->
  <rect x="120" y="25" width="20" height="55" fill="#696969" opacity="0.8" />
  <rect x="145" y="35" width="18" height="45" fill="#778899" opacity="0.7" />
  <rect x="170" y="40" width="22" height="40" fill="#708090" opacity="0.8" />
  
  <!-- Eagle symbol (Beşiktaş symbol) -->
  <path d="M100 20 Q95 15 90 20 Q95 25 100 22 Q105 25 110 20 Q105 15 100 20" fill="#000000" opacity="0.6" />
  
  <!-- Text area -->
  <rect x="0" y="100" width="200" height="20" fill="#FFFFFF" opacity="0.9" />
</svg>